<?xml version="1.0" encoding="UTF-8"?>
<svg id="Layer_2" data-name="Layer 2" xmlns="http://www.w3.org/2000/svg" viewBox="0 0 750.77 750.77">
  <defs>
    <style>
      .cls-1 {
        fill: #fff;
        fill-rule: evenodd;
      }
    </style>
  </defs>
  <g id="Layer_1-2" data-name="Layer 1">
    <path d="M727.53,52.37c-15.53-28.12-43.19-44.14-82.94-48.01h-11.63c-35.91,0-64.52,12.15-85.86,36.38C492.77,13.6,435.06,0,373.94,0c-51.42,0-99.69,9.96-144.78,29.82-45.09,19.89-84.64,46.83-118.59,80.75-33.95,33.92-60.88,73.73-80.75,119.32C9.93,275.5,0,324,0,375.38s9.93,99.92,29.82,145.5c19.86,45.61,46.8,85.37,80.75,119.32,33.95,33.98,73.47,60.88,118.59,80.75,45.09,19.86,93.36,29.82,144.78,29.82,31.03,0,61.35-3.15,90.94-9.47,29.59-6.29,56.99-16.22,82.22-29.82,21.33,23.27,49.94,34.93,85.86,34.93h8.72c18.42,0,34.67-3.9,48.73-11.63,14.06-7.77,25.46-18.19,34.18-31.29s15.27-27.89,19.63-44.37,6.55-33.46,6.55-50.93V144.03c0-32.97-7.77-63.51-23.27-91.66h.03Z"/>
    <path class="cls-1" d="M434.45,208.9c-45.38-12.15-91.37-5.05-129.3,16.37-6.73,3.78-15.24,1.41-19.05-5.31-3.78-6.73-1.41-15.24,5.31-19.05,44.05-24.86,97.55-33.14,150.26-19.02,106.87,28.64,170.3,138.48,141.66,245.36-28.64,106.87-138.48,170.3-245.36,141.66s-170.3-138.48-141.66-245.36c5.66-21.16,14.55-40.65,25.95-58.06,10.71-16.31,32.28-17.58,45.93-6.52l130.4,105.55c6,4.85,6.93,13.66,2.08,19.66-4.85,6-13.66,6.93-19.66,2.08l-75.29-60.94c-8.75,14.64-13.77,31.76-13.77,50.06,0,54.04,43.79,97.84,97.84,97.84s97.84-43.79,97.84-97.84-43.79-97.84-97.84-97.84c-10.83,0-21.22,1.76-30.95,4.99-7.33,2.42-15.24-1.53-17.67-8.83-2.42-7.33,1.53-15.24,8.83-17.67,12.53-4.16,25.9-6.41,39.78-6.41,69.46,0,125.78,56.32,125.78,125.78s-56.32,125.78-125.78,125.78-125.78-56.32-125.78-125.78c0-24.94,7.28-48.24,19.8-67.78l-33.23-26.91c-1.04-.84-2.22-1.1-3.15-.98-.84.12-1.41.46-1.82,1.1-9.82,14.95-17.44,31.7-22.32,49.94-24.65,91.95,29.94,186.47,121.89,211.12s186.47-29.94,211.12-121.89-29.94-186.49-121.89-211.12h0l.03.03Z"/>
  </g>
</svg>