<?xml version="1.0" encoding="UTF-8"?>
<svg id="Layer_2" data-name="Layer 2" xmlns="http://www.w3.org/2000/svg" viewBox="0 0 2776.13 385.09">
  <defs>
    <style>
      .cls-1 {
        fill-rule: evenodd;
      }

      .cls-2 {
        fill: #fff;
        stroke: #fff;
        stroke-miterlimit: 10;
      }
    </style>
  </defs>
  <g id="Layer_1-2" data-name="Layer 1">
    <path class="cls-2" d="M253.01.51c13.1,0,22.93,3.11,29.49,9.32,6.55,6.22,9.83,14.2,9.83,23.94v155.24l103.32-149.19c5.04-7.06,10.66-13.69,16.88-19.91s13.18-11.17,20.92-14.87c-.34,0-.09-.08.76-.25.83-.17,1.26-.42,1.26-.76l10.08-2.52c.67,0,1.17-.17,1.51-.5h2.52c.33,0,.67-.08,1.01-.25.33-.17.67-.25,1.01-.25h2.52c7.06,0,13.43,1.01,19.15,3.02l3.53,1.51c8.73,3.7,14.87,9.41,18.4,17.14,3.53,7.73,5.29,17.31,5.29,28.73v288.8c0,5.38-1.26,10.58-3.78,15.62s-5.88,9.58-10.08,13.61c-4.21,4.03-9.07,7.31-14.62,9.83-5.54,2.52-11.34,3.78-17.39,3.78-11.77,0-21.67-4.11-29.74-12.35-8.06-8.23-12.1-18.22-12.1-29.99v-170.36l-119.96,176.91c-7.06,10.42-14.36,18.99-21.92,25.71-7.56,6.73-17.39,10.08-29.49,10.08-6.72,0-12.35-1.35-16.88-4.03s-8.32-6.05-11.34-10.08-5.21-8.23-6.55-12.6c-1.35-4.36-2.02-8.4-2.02-12.1v-159.27l-109.37,166.83c-2.02,3.02-4.46,6.39-7.31,10.08-2.86,3.7-6.39,7.06-10.58,10.08-4.21,3.02-9.41,5.63-15.62,7.81-6.22,2.18-13.7,3.28-22.43,3.28-12.44,0-22.01-3.19-28.73-9.58-6.73-6.38-10.08-13.94-10.08-22.68,0-4.03.83-8.65,2.52-13.86,1.68-5.21,4.2-10.33,7.56-15.37L195.56,36.79c7.73-11.76,15.88-20.74,24.45-26.97,8.57-6.21,19.57-9.32,33.01-9.32h-.01Z"/>
    <path class="cls-2" d="M661.26,312.5c10.08,0,17.97-.87,23.69-2.6,5.71-1.73,10.58-3.64,14.62-5.72s8.06-3.98,12.1-5.72c4.03-1.73,9.4-2.6,16.13-2.6,10.08,0,17.81,2.69,23.18,8.06,5.37,5.38,8.06,12.77,8.06,22.18,0,12.1-4.54,22.35-13.61,30.75-12.77,11.77-26.55,19.33-41.33,22.68-14.79,3.35-30.24,5.04-46.37,5.04-18.15,0-35.12-3.45-50.91-10.33-15.8-6.88-29.57-16.21-41.33-27.97-11.77-11.76-21-25.62-27.72-41.58-6.73-15.96-10.08-33.01-10.08-51.16s3.35-34.6,10.08-50.4c6.72-15.79,15.96-29.49,27.72-41.08,11.76-11.59,25.53-20.74,41.33-27.47,15.79-6.72,32.76-10.08,50.91-10.08,16.8,0,32.51,2.95,47.12,8.82,14.62,5.88,27.63,13.95,39.06,24.19,11.42,10.25,20.66,22.43,27.72,36.54s11.42,29.23,13.1,45.36v4.03c0,11.09-4.03,20.41-12.1,27.97-8.06,7.56-17.64,11.34-28.73,11.34h-129.03c0,2.74,1.17,5.81,3.53,9.23,2.35,3.42,5.54,6.67,9.58,9.74,4.03,3.08,8.9,5.65,14.62,7.69,5.71,2.05,11.92,3.07,18.65,3.07v.02h.01ZM701.08,227.32c0-5.37-3.95-11-11.84-16.88-7.9-5.88-18.74-8.82-32.51-8.82-6.73,0-12.77,1.09-18.14,3.28-5.38,2.19-9.92,4.71-13.61,7.56-3.7,2.86-6.55,5.72-8.57,8.57-2.02,2.86-3.02,4.96-3.02,6.3h87.7,0Z"/>
    <path class="cls-2" d="M808.44,170.36c0-16.13,4.03-27.8,12.1-35.03,8.06-7.22,17.97-10.84,29.74-10.84,10.75,0,19.48,3.36,26.21,10.08,7.06-3.69,14.53-6.3,22.43-7.81,7.89-1.51,15.54-2.27,22.93-2.27,5.37,0,10.58,1.09,15.62,3.28,5.04,2.19,9.49,5.21,13.36,9.07,3.86,3.87,6.88,8.24,9.07,13.1,2.18,4.88,3.28,10,3.28,15.37,0,11.43-4.12,20.92-12.35,28.48-8.24,7.56-17.56,11.84-27.97,12.85-8.4,1.01-15.71,4.03-21.92,9.07-6.22,5.04-9.66,11.59-10.33,19.66v98.79c0,16.13-3.95,28.23-11.84,36.29-7.9,8.06-17.22,12.1-27.97,12.1-12.43,0-22.43-3.53-29.99-10.58-7.56-7.06-11.68-19.48-12.35-37.3v-164.31h-.02Z"/>
    <path class="cls-2" d="M1093.21,124.5c11.09,0,21.84,1.51,32.26,4.54,10.41,3.02,20.33,7.14,29.74,12.35,9.4,5.21,17.89,11.26,25.45,18.15,7.56,6.89,14.03,14.2,19.41,21.92,1.68,2.69,3.19,5.97,4.54,9.83,1.34,3.87,2.02,8.66,2.02,14.36,0,10.76-3.45,19.33-10.33,25.71-6.89,6.39-15.71,9.58-26.46,9.58h-3.28c-1.18,0-2.27-.17-3.28-.5-6.73-1.01-12.27-3.02-16.63-6.05-4.37-3.02-8.57-6.38-12.6-10.08-4.71-4.36-10-8.4-15.88-12.1-5.88-3.69-14.03-5.54-24.45-5.54-6.73,0-12.94,1.26-18.65,3.78-5.72,2.52-10.67,5.88-14.87,10.08s-7.56,9.25-10.08,15.12c-2.52,5.88-3.78,12.02-3.78,18.4,0,6.73,1.26,13.03,3.78,18.9,2.52,5.88,5.88,11.01,10.08,15.37,4.2,4.37,9.15,7.81,14.87,10.33,5.71,2.52,11.92,3.78,18.65,3.78,9.07,0,16.96-2.27,23.69-6.8,6.72-4.54,13.27-11.17,19.66-19.91,2.69-3.69,6.55-7.64,11.59-11.84,5.04-4.2,12.26-6.3,21.67-6.3h4.28c1.51,0,3.1.17,4.79.5,11.09,2.02,19.23,6.55,24.45,13.61,5.21,7.06,7.81,15.46,7.81,25.2,0,6.05-1.01,11.26-3.02,15.62-11.09,21.51-26.8,38.9-47.13,52.17-20.33,13.28-43.09,19.91-68.29,19.91-18.14,0-35.12-3.36-50.91-10.08-15.8-6.72-29.66-16.04-41.58-27.97-11.93-11.92-21.26-25.78-27.97-41.58-6.73-15.79-10.08-32.76-10.08-50.91s3.35-34.6,10.08-50.4c6.72-15.79,16.04-29.56,27.97-41.33,11.92-11.76,25.78-21,41.58-27.72,15.79-6.72,32.76-10.08,50.91-10.08v-.02h-.01Z"/>
    <path class="cls-2" d="M1330.6,129.03c4.7-1.68,9.66-2.77,14.87-3.28,5.21-.5,10.5-.76,15.88-.76,35.95,0,63.84,9.75,83.67,29.23,19.82,19.49,29.74,47.21,29.74,83.16v97.28c0,16.81-3.95,28.98-11.84,36.54-7.9,7.56-17.39,11.34-28.48,11.34-11.77,0-21.67-3.78-29.74-11.34-8.06-7.56-12.1-19.74-12.1-36.54v-96.27c0-8.73-3.02-16.13-9.07-22.18-6.05-6.05-13.44-9.07-22.18-9.07s-16.13,3.02-22.18,9.07c-6.05,6.05-9.07,13.44-9.07,22.18v96.27c0,15.12-3.7,26.89-11.09,35.28-7.4,8.4-16.47,12.6-27.22,12.6h-4.03c-11.77-.34-21.26-4.28-28.48-11.84-7.23-7.56-10.84-19.57-10.84-36.04V74.08c0-15.12,3.28-26.96,9.83-35.53,6.55-8.57,17.05-12.85,31.5-12.85,11.42,0,21.08,3.7,28.98,11.09,7.89,7.4,11.84,19.49,11.84,36.29v55.95h0Z"/>
    <path class="cls-2" d="M1591.68,234.88v102.82c0,12.43-4.37,23.02-13.1,31.75s-19.33,13.1-31.75,13.1c-6.05,0-11.68-1.26-16.88-3.78-5.21-2.52-9.75-5.88-13.61-10.08-3.87-4.2-6.8-9.07-8.82-14.62-2.02-5.54-3.02-11.17-3.02-16.88V46.87c0-12.77,3.95-23.35,11.84-31.75s18.06-12.6,30.49-12.6h77.11c16.46,0,31.67,3.02,45.61,9.07s25.96,14.36,36.04,24.95c10.08,10.58,17.89,22.93,23.44,37.05,5.54,14.11,8.32,29.41,8.32,45.87,0,24.87-4.79,45.61-14.37,62.25-9.58,16.63-23.44,30.33-41.58,41.08l45.87,97.78c3.02,6.05,4.54,12.43,4.54,19.15,0,5.38-1.09,10.67-3.28,15.88-2.19,5.21-5.29,9.83-9.33,13.86-4.03,4.03-8.82,7.23-14.36,9.58s-11.51,3.53-17.89,3.53c-7.73,0-15.12-2.09-22.18-6.3-7.06-4.2-12.6-10.16-16.63-17.89l-56.45-123.48v-.02h-.01ZM1591.68,89.72v61.99h32.26c5.04,0,9.24-1.17,12.6-3.53,3.36-2.35,6.05-5.12,8.06-8.32,2.02-3.19,3.44-6.63,4.28-10.33.83-3.69,1.26-7.06,1.26-10.08,0-2.69-.42-5.71-1.26-9.07-.84-3.35-2.27-6.55-4.28-9.58-2.02-3.02-4.71-5.62-8.06-7.81-3.36-2.18-7.56-3.28-12.6-3.28h-32.26Z"/>
    <path class="cls-2" d="M2286.73,335.18c0,14.45-3.7,25.96-11.09,34.53-7.39,8.57-17.48,13.02-30.24,13.36-11.43,0-21.17-4.03-29.23-12.1-8.4,4.03-17.64,7.31-27.72,9.83-10.08,2.52-20.84,3.78-32.26,3.78-17.81,0-34.61-3.36-50.4-10.08-15.8-6.72-29.57-15.96-41.33-27.72-11.77-11.76-21.09-25.53-27.97-41.33-6.89-15.79-10.33-32.59-10.33-50.4s3.44-34.6,10.33-50.4c6.88-15.79,16.21-29.56,27.97-41.33,11.76-11.76,25.53-21,41.33-27.72,15.79-6.72,32.59-10.08,50.4-10.08,9.07,0,17.47.68,25.2,2.02,7.73,1.35,15.45,3.7,23.19,7.06v-60.48c0-16.8,3.95-29.06,11.84-36.79,7.89-7.73,17.55-11.59,28.98-11.59,14.44,0,24.95,4.28,31.5,12.85,6.55,8.57,9.83,20.41,9.83,35.53v261.08-.02h0ZM2107.8,255.04c0,14.11,4.62,25.71,13.86,34.78,9.24,9.07,20.74,13.61,34.53,13.61s25.2-4.54,34.27-13.61,13.61-20.67,13.61-34.78-4.54-25.71-13.61-34.78c-9.07-9.07-20.5-13.61-34.27-13.61s-25.29,4.54-34.53,13.61c-9.25,9.07-13.86,20.66-13.86,34.78Z"/>
    <path class="cls-2" d="M2321,254.53c0-17.81,3.44-34.6,10.33-50.4,6.88-15.79,16.21-29.56,27.97-41.33s25.45-21.08,41.08-27.97c15.62-6.88,32.34-10.33,50.15-10.33,21.17,0,41.16,4.71,59.98,14.11,7.39-8.4,17.3-12.6,29.74-12.6h4.03c13.77,1.35,23.35,6.89,28.73,16.63,5.37,9.75,8.06,20.33,8.06,31.75v160.78c0,6.05-.76,11.93-2.27,17.64-1.51,5.72-3.78,10.84-6.8,15.37-3.02,4.54-6.98,8.15-11.84,10.84-4.88,2.69-10.51,4.03-16.88,4.03h-3.02c-12.44,0-22.35-4.03-29.74-12.1-8.74,4.71-18.23,8.15-28.48,10.33-10.25,2.18-20.75,3.28-31.5,3.28-17.81,0-34.53-3.45-50.15-10.33-15.62-6.88-29.32-16.21-41.08-27.97-11.77-11.76-21.09-25.53-27.97-41.33-6.89-15.79-10.33-32.59-10.33-50.4h-.01ZM2402.65,254.53c0,14.11,4.62,25.79,13.86,35.03,9.24,9.25,20.58,13.86,34.02,13.86,14.11,0,25.71-4.62,34.78-13.86s13.61-20.92,13.61-35.03-4.54-25.78-13.61-35.03c-9.07-9.24-20.67-13.86-34.78-13.86s-24.78,4.62-34.02,13.86-13.86,20.92-13.86,35.03Z"/>
    <path class="cls-2" d="M2620.89,170.36c0-16.13,4.03-27.8,12.1-35.03,8.06-7.22,17.97-10.84,29.74-10.84,10.75,0,19.48,3.36,26.21,10.08,7.06-3.69,14.53-6.3,22.43-7.81,7.89-1.51,15.54-2.27,22.93-2.27,5.37,0,10.58,1.09,15.62,3.28,5.04,2.19,9.49,5.21,13.36,9.07,3.86,3.87,6.88,8.24,9.07,13.1,2.18,4.88,3.28,10,3.28,15.37,0,11.43-4.12,20.92-12.35,28.48-8.24,7.56-17.56,11.84-27.97,12.85-8.4,1.01-15.71,4.03-21.92,9.07-6.22,5.04-9.66,11.59-10.33,19.66v98.79c0,16.13-3.95,28.23-11.84,36.29-7.9,8.06-17.22,12.1-27.97,12.1-12.43,0-22.43-3.53-29.99-10.58-7.56-7.06-11.68-19.48-12.35-37.3v-164.31h-.02Z"/>
    <path class="cls-2" d="M1997.42,142.64c-5.38-9.74-14.96-15.29-28.73-16.63h-4.03c-12.44,0-22.35,4.21-29.74,12.6-18.82-9.4-38.81-14.11-59.98-14.11-17.81,0-34.53,3.45-50.15,10.33-15.62,6.89-29.32,16.22-41.08,27.97s-21.09,25.54-27.97,41.33c-6.89,15.8-10.33,32.6-10.33,50.4s3.44,34.61,10.33,50.4c6.88,15.8,16.21,29.57,27.97,41.33,11.76,11.77,25.45,21.09,41.08,27.97,15.62,6.88,32.34,10.33,50.15,10.33,10.75,0,21.25-1.09,31.5-3.28,10.25-2.18,19.74-5.62,28.48-10.33,7.39,8.06,17.3,12.1,29.74,12.1h3.02c6.38,0,12.01-1.35,16.88-4.03,4.87-2.69,8.82-6.3,11.84-10.84,3.02-4.54,5.29-9.66,6.8-15.37s2.27-11.59,2.27-17.64v-160.78c0-11.42-2.69-22-8.06-31.75h.01Z"/>
    <path class="cls-1" d="M1895.9,196.86c-15.72-4.21-31.65-1.75-44.79,5.67-2.33,1.31-5.28.49-6.6-1.84-1.31-2.33-.49-5.28,1.84-6.6,15.26-8.61,33.79-11.48,52.05-6.59,37.02,9.92,58.99,47.97,49.07,84.99-9.92,37.02-47.97,58.99-84.99,49.07s-58.99-47.97-49.07-84.99c1.96-7.33,5.04-14.08,8.99-20.11,3.71-5.65,11.18-6.09,15.91-2.26l45.17,36.56c2.08,1.68,2.4,4.73.72,6.81-1.68,2.08-4.73,2.4-6.81.72l-26.08-21.11c-3.03,5.07-4.77,11-4.77,17.34,0,18.72,15.17,33.89,33.89,33.89s33.89-15.17,33.89-33.89-15.17-33.89-33.89-33.89c-3.75,0-7.35.61-10.72,1.73-2.54.84-5.28-.53-6.12-3.06-.84-2.54.53-5.28,3.06-6.12,4.34-1.44,8.97-2.22,13.78-2.22,24.06,0,43.57,19.51,43.57,43.57s-19.51,43.57-43.57,43.57-43.57-19.51-43.57-43.57c0-8.64,2.52-16.71,6.86-23.48l-11.51-9.32c-.36-.29-.77-.38-1.09-.34-.29.04-.49.16-.63.38-3.4,5.18-6.04,10.98-7.73,17.3-8.54,31.85,10.37,64.59,42.22,73.13s64.59-10.37,73.13-42.22c8.54-31.85-10.37-64.6-42.22-73.13h0Z"/>
  </g>
</svg>